<mxfile host="app.diagrams.net" modified="2024-02-09T20:06:55.899Z" agent="Mozilla/5.0 (Windows NT 10.0; Win64; x64) AppleWebKit/537.36 (KHTML, like Gecko) Chrome/121.0.0.0 Safari/537.36" etag="8QTifiI7wsjwnhO6dC_5" version="23.1.2" type="device">
  <diagram name="PÃ¡gina-1" id="YWwpQouYR_St5WhMtohu">
    <mxGraphModel dx="1170" dy="1833" grid="1" gridSize="10" guides="1" tooltips="1" connect="1" arrows="1" fold="1" page="1" pageScale="1" pageWidth="827" pageHeight="1169" math="0" shadow="0">
      <root>
        <mxCell id="0" />
        <mxCell id="1" parent="0" />
        <mxCell id="2Dn0QCxe09-aWtVjXDXx-18" value="" style="rounded=1;whiteSpace=wrap;html=1;fillColor=#d5e8d4;strokeColor=#82b366;" vertex="1" parent="1">
          <mxGeometry x="580" y="-30" width="180" height="630" as="geometry" />
        </mxCell>
        <mxCell id="2Dn0QCxe09-aWtVjXDXx-26" value="" style="rounded=1;whiteSpace=wrap;html=1;fillColor=#d5e8d4;strokeColor=#82b366;" vertex="1" parent="1">
          <mxGeometry x="960" y="-30" width="180" height="630" as="geometry" />
        </mxCell>
        <mxCell id="2Dn0QCxe09-aWtVjXDXx-32" style="edgeStyle=orthogonalEdgeStyle;rounded=0;orthogonalLoop=1;jettySize=auto;html=1;fontSize=18;strokeWidth=6;" edge="1" parent="1" source="2Dn0QCxe09-aWtVjXDXx-4" target="2Dn0QCxe09-aWtVjXDXx-31">
          <mxGeometry relative="1" as="geometry" />
        </mxCell>
        <mxCell id="2Dn0QCxe09-aWtVjXDXx-4" value="" style="rounded=1;whiteSpace=wrap;html=1;fillColor=#d5e8d4;strokeColor=#82b366;" vertex="1" parent="1">
          <mxGeometry x="260" y="-30" width="180" height="630" as="geometry" />
        </mxCell>
        <mxCell id="2Dn0QCxe09-aWtVjXDXx-3" style="edgeStyle=orthogonalEdgeStyle;rounded=1;orthogonalLoop=1;jettySize=auto;html=1;entryX=0;entryY=0.5;entryDx=0;entryDy=0;curved=0;strokeWidth=4;" edge="1" parent="1" source="2Dn0QCxe09-aWtVjXDXx-1" target="2Dn0QCxe09-aWtVjXDXx-2">
          <mxGeometry relative="1" as="geometry" />
        </mxCell>
        <mxCell id="2Dn0QCxe09-aWtVjXDXx-7" style="edgeStyle=orthogonalEdgeStyle;rounded=1;orthogonalLoop=1;jettySize=auto;html=1;curved=0;strokeWidth=4;" edge="1" parent="1" source="2Dn0QCxe09-aWtVjXDXx-1" target="2Dn0QCxe09-aWtVjXDXx-5">
          <mxGeometry relative="1" as="geometry" />
        </mxCell>
        <mxCell id="2Dn0QCxe09-aWtVjXDXx-8" style="edgeStyle=orthogonalEdgeStyle;rounded=1;orthogonalLoop=1;jettySize=auto;html=1;entryX=0;entryY=0.5;entryDx=0;entryDy=0;curved=0;strokeWidth=4;" edge="1" parent="1" source="2Dn0QCxe09-aWtVjXDXx-1" target="2Dn0QCxe09-aWtVjXDXx-6">
          <mxGeometry relative="1" as="geometry" />
        </mxCell>
        <mxCell id="2Dn0QCxe09-aWtVjXDXx-17" style="edgeStyle=orthogonalEdgeStyle;rounded=1;orthogonalLoop=1;jettySize=auto;html=1;entryX=0;entryY=0.5;entryDx=0;entryDy=0;curved=0;strokeWidth=4;" edge="1" parent="1" source="2Dn0QCxe09-aWtVjXDXx-1" target="2Dn0QCxe09-aWtVjXDXx-16">
          <mxGeometry relative="1" as="geometry" />
        </mxCell>
        <mxCell id="2Dn0QCxe09-aWtVjXDXx-1" value="Actor" style="shape=umlActor;verticalLabelPosition=bottom;verticalAlign=top;html=1;outlineConnect=0;" vertex="1" parent="1">
          <mxGeometry x="80" y="110" width="80" height="160" as="geometry" />
        </mxCell>
        <mxCell id="2Dn0QCxe09-aWtVjXDXx-2" value="Alexa" style="ellipse;whiteSpace=wrap;html=1;aspect=fixed;fillColor=#e1d5e7;strokeColor=#9673a6;" vertex="1" parent="1">
          <mxGeometry x="310" y="50" width="80" height="80" as="geometry" />
        </mxCell>
        <mxCell id="2Dn0QCxe09-aWtVjXDXx-5" value="App" style="ellipse;whiteSpace=wrap;html=1;aspect=fixed;fillColor=#fff2cc;strokeColor=#d6b656;" vertex="1" parent="1">
          <mxGeometry x="310" y="150" width="80" height="80" as="geometry" />
        </mxCell>
        <mxCell id="2Dn0QCxe09-aWtVjXDXx-23" style="edgeStyle=orthogonalEdgeStyle;rounded=0;orthogonalLoop=1;jettySize=auto;html=1;entryX=0;entryY=0.5;entryDx=0;entryDy=0;curved=1;strokeWidth=6;" edge="1" parent="1" source="2Dn0QCxe09-aWtVjXDXx-6" target="2Dn0QCxe09-aWtVjXDXx-20">
          <mxGeometry relative="1" as="geometry" />
        </mxCell>
        <mxCell id="2Dn0QCxe09-aWtVjXDXx-50" style="edgeStyle=orthogonalEdgeStyle;rounded=0;orthogonalLoop=1;jettySize=auto;html=1;entryX=0;entryY=0.5;entryDx=0;entryDy=0;curved=1;strokeWidth=6;" edge="1" parent="1" source="2Dn0QCxe09-aWtVjXDXx-6" target="2Dn0QCxe09-aWtVjXDXx-22">
          <mxGeometry relative="1" as="geometry" />
        </mxCell>
        <mxCell id="2Dn0QCxe09-aWtVjXDXx-6" value="App Python" style="ellipse;whiteSpace=wrap;html=1;aspect=fixed;fillColor=#e1d5e7;strokeColor=#9673a6;" vertex="1" parent="1">
          <mxGeometry x="310" y="250" width="80" height="80" as="geometry" />
        </mxCell>
        <mxCell id="2Dn0QCxe09-aWtVjXDXx-9" value="Entrada de dados" style="text;html=1;strokeColor=none;fillColor=none;align=center;verticalAlign=middle;whiteSpace=wrap;rounded=0;fontSize=20;fontStyle=1" vertex="1" parent="1">
          <mxGeometry x="280" y="-20" width="140" height="40" as="geometry" />
        </mxCell>
        <mxCell id="2Dn0QCxe09-aWtVjXDXx-10" value="" style="ellipse;whiteSpace=wrap;html=1;aspect=fixed;fillColor=#e1d5e7;strokeColor=#9673a6;" vertex="1" parent="1">
          <mxGeometry x="690" y="-90" width="40" height="40" as="geometry" />
        </mxCell>
        <mxCell id="2Dn0QCxe09-aWtVjXDXx-11" value="" style="ellipse;whiteSpace=wrap;html=1;aspect=fixed;fillColor=#fff2cc;strokeColor=#d6b656;" vertex="1" parent="1">
          <mxGeometry x="500" y="-90" width="40" height="40" as="geometry" />
        </mxCell>
        <mxCell id="2Dn0QCxe09-aWtVjXDXx-12" value="" style="ellipse;whiteSpace=wrap;html=1;aspect=fixed;fillColor=#f8cecc;strokeColor=#b85450;" vertex="1" parent="1">
          <mxGeometry x="330" y="-90" width="40" height="40" as="geometry" />
        </mxCell>
        <mxCell id="2Dn0QCxe09-aWtVjXDXx-13" value="MVP" style="text;html=1;strokeColor=none;fillColor=none;align=center;verticalAlign=middle;whiteSpace=wrap;rounded=0;fontSize=20;fontStyle=1" vertex="1" parent="1">
          <mxGeometry x="730" y="-90" width="140" height="40" as="geometry" />
        </mxCell>
        <mxCell id="2Dn0QCxe09-aWtVjXDXx-14" value="V1" style="text;html=1;strokeColor=none;fillColor=none;align=center;verticalAlign=middle;whiteSpace=wrap;rounded=0;fontSize=20;fontStyle=1" vertex="1" parent="1">
          <mxGeometry x="540" y="-90" width="140" height="40" as="geometry" />
        </mxCell>
        <mxCell id="2Dn0QCxe09-aWtVjXDXx-15" value="V2" style="text;html=1;strokeColor=none;fillColor=none;align=center;verticalAlign=middle;whiteSpace=wrap;rounded=0;fontSize=20;fontStyle=1" vertex="1" parent="1">
          <mxGeometry x="370" y="-90" width="140" height="40" as="geometry" />
        </mxCell>
        <mxCell id="2Dn0QCxe09-aWtVjXDXx-16" value="???" style="ellipse;whiteSpace=wrap;html=1;aspect=fixed;fillColor=#e1d5e7;strokeColor=#9673a6;" vertex="1" parent="1">
          <mxGeometry x="310" y="350" width="80" height="80" as="geometry" />
        </mxCell>
        <mxCell id="2Dn0QCxe09-aWtVjXDXx-19" value="Broker" style="text;html=1;strokeColor=none;fillColor=none;align=center;verticalAlign=middle;whiteSpace=wrap;rounded=0;fontSize=20;fontStyle=1" vertex="1" parent="1">
          <mxGeometry x="600" y="-17" width="140" height="40" as="geometry" />
        </mxCell>
        <mxCell id="2Dn0QCxe09-aWtVjXDXx-30" style="edgeStyle=orthogonalEdgeStyle;rounded=0;orthogonalLoop=1;jettySize=auto;html=1;entryX=0;entryY=0.5;entryDx=0;entryDy=0;fontSize=15;curved=1;strokeWidth=5;" edge="1" parent="1" source="2Dn0QCxe09-aWtVjXDXx-20" target="2Dn0QCxe09-aWtVjXDXx-29">
          <mxGeometry relative="1" as="geometry" />
        </mxCell>
        <mxCell id="2Dn0QCxe09-aWtVjXDXx-39" style="edgeStyle=orthogonalEdgeStyle;rounded=0;orthogonalLoop=1;jettySize=auto;html=1;entryX=0;entryY=0.5;entryDx=0;entryDy=0;curved=1;strokeWidth=6;" edge="1" parent="1" source="2Dn0QCxe09-aWtVjXDXx-20" target="2Dn0QCxe09-aWtVjXDXx-36">
          <mxGeometry relative="1" as="geometry">
            <Array as="points">
              <mxPoint x="870" y="90" />
              <mxPoint x="870" y="205" />
            </Array>
          </mxGeometry>
        </mxCell>
        <mxCell id="2Dn0QCxe09-aWtVjXDXx-43" style="edgeStyle=orthogonalEdgeStyle;rounded=0;orthogonalLoop=1;jettySize=auto;html=1;entryX=0;entryY=0.5;entryDx=0;entryDy=0;curved=1;strokeWidth=6;" edge="1" parent="1" source="2Dn0QCxe09-aWtVjXDXx-20" target="2Dn0QCxe09-aWtVjXDXx-42">
          <mxGeometry relative="1" as="geometry">
            <Array as="points">
              <mxPoint x="830" y="90" />
              <mxPoint x="830" y="545" />
            </Array>
          </mxGeometry>
        </mxCell>
        <mxCell id="2Dn0QCxe09-aWtVjXDXx-20" value="Thingspeak" style="ellipse;whiteSpace=wrap;html=1;aspect=fixed;fillColor=#e1d5e7;strokeColor=#9673a6;" vertex="1" parent="1">
          <mxGeometry x="630" y="50" width="80" height="80" as="geometry" />
        </mxCell>
        <mxCell id="2Dn0QCxe09-aWtVjXDXx-21" value="Nuvem" style="ellipse;whiteSpace=wrap;html=1;aspect=fixed;fillColor=#f8cecc;strokeColor=#b85450;" vertex="1" parent="1">
          <mxGeometry x="630" y="382.5" width="80" height="80" as="geometry" />
        </mxCell>
        <mxCell id="2Dn0QCxe09-aWtVjXDXx-22" value="MQTT" style="ellipse;whiteSpace=wrap;html=1;aspect=fixed;fillColor=#fff2cc;strokeColor=#d6b656;" vertex="1" parent="1">
          <mxGeometry x="630" y="160" width="80" height="80" as="geometry" />
        </mxCell>
        <mxCell id="2Dn0QCxe09-aWtVjXDXx-27" value="Dispositivos Inteligentes" style="text;html=1;strokeColor=none;fillColor=none;align=center;verticalAlign=middle;whiteSpace=wrap;rounded=0;fontSize=20;fontStyle=1" vertex="1" parent="1">
          <mxGeometry x="980" y="-10" width="140" height="40" as="geometry" />
        </mxCell>
        <mxCell id="2Dn0QCxe09-aWtVjXDXx-28" value="Node-RED" style="ellipse;whiteSpace=wrap;html=1;aspect=fixed;fillColor=#fff2cc;strokeColor=#d6b656;" vertex="1" parent="1">
          <mxGeometry x="630" y="260" width="80" height="80" as="geometry" />
        </mxCell>
        <mxCell id="2Dn0QCxe09-aWtVjXDXx-29" value="" style="shape=image;verticalLabelPosition=bottom;labelBackgroundColor=default;verticalAlign=top;aspect=fixed;imageAspect=0;image=https://cdn-icons-png.flaticon.com/512/1537/1537466.png;" vertex="1" parent="1">
          <mxGeometry x="1015" y="55" width="70" height="70" as="geometry" />
        </mxCell>
        <mxCell id="2Dn0QCxe09-aWtVjXDXx-31" value="" style="sketch=0;pointerEvents=1;shadow=0;dashed=0;html=1;strokeColor=none;fillColor=#434445;aspect=fixed;labelPosition=center;verticalLabelPosition=bottom;verticalAlign=top;align=center;outlineConnect=0;shape=mxgraph.vvd.log_files;" vertex="1" parent="1">
          <mxGeometry x="300" y="680" width="100" height="125" as="geometry" />
        </mxCell>
        <mxCell id="2Dn0QCxe09-aWtVjXDXx-35" value="" style="verticalLabelPosition=bottom;verticalAlign=top;html=1;shadow=0;dashed=0;strokeWidth=1;shape=mxgraph.android.phone2;strokeColor=#b85450;fillColor=#f8cecc;" vertex="1" parent="1">
          <mxGeometry x="1100" y="45" width="50" height="90" as="geometry" />
        </mxCell>
        <mxCell id="2Dn0QCxe09-aWtVjXDXx-36" value="" style="shape=image;verticalLabelPosition=bottom;labelBackgroundColor=default;verticalAlign=top;aspect=fixed;imageAspect=0;image=https://cdn-icons-png.flaticon.com/512/1537/1537466.png;" vertex="1" parent="1">
          <mxGeometry x="1010" y="170" width="70" height="70" as="geometry" />
        </mxCell>
        <mxCell id="2Dn0QCxe09-aWtVjXDXx-37" value="Lampada inteligente" style="text;html=1;strokeColor=none;fillColor=none;align=center;verticalAlign=middle;whiteSpace=wrap;rounded=0;fontSize=20;fontStyle=1" vertex="1" parent="1">
          <mxGeometry x="1085" y="187.5" width="105" height="35" as="geometry" />
        </mxCell>
        <mxCell id="2Dn0QCxe09-aWtVjXDXx-38" value="" style="fontColor=#0066CC;verticalAlign=top;verticalLabelPosition=bottom;labelPosition=center;align=center;html=1;outlineConnect=0;fillColor=#CCCCCC;strokeColor=#6881B3;gradientColor=none;gradientDirection=north;strokeWidth=2;shape=mxgraph.networks.video_projector;" vertex="1" parent="1">
          <mxGeometry x="1000" y="405" width="100" height="35" as="geometry" />
        </mxCell>
        <mxCell id="2Dn0QCxe09-aWtVjXDXx-41" style="edgeStyle=orthogonalEdgeStyle;rounded=0;orthogonalLoop=1;jettySize=auto;html=1;entryX=0;entryY=0.5;entryDx=0;entryDy=0;entryPerimeter=0;curved=1;strokeWidth=6;" edge="1" parent="1" source="2Dn0QCxe09-aWtVjXDXx-20" target="2Dn0QCxe09-aWtVjXDXx-38">
          <mxGeometry relative="1" as="geometry">
            <Array as="points">
              <mxPoint x="840" y="90" />
              <mxPoint x="840" y="423" />
            </Array>
          </mxGeometry>
        </mxCell>
        <mxCell id="2Dn0QCxe09-aWtVjXDXx-42" value="" style="shape=image;verticalLabelPosition=bottom;labelBackgroundColor=default;verticalAlign=top;aspect=fixed;imageAspect=0;image=https://cdn-icons-png.flaticon.com/512/6869/6869912.png;" vertex="1" parent="1">
          <mxGeometry x="1010" y="505" width="80" height="80" as="geometry" />
        </mxCell>
        <mxCell id="2Dn0QCxe09-aWtVjXDXx-44" value="" style="image;points=[];aspect=fixed;html=1;align=center;shadow=0;dashed=0;image=img/lib/allied_telesis/computer_and_terminals/Personal_Computer_with_Server.svg;" vertex="1" parent="1">
          <mxGeometry x="1000" y="270" width="90" height="90" as="geometry" />
        </mxCell>
        <mxCell id="2Dn0QCxe09-aWtVjXDXx-45" value="" style="ellipse;whiteSpace=wrap;html=1;aspect=fixed;fillColor=#e1d5e7;strokeColor=#9673a6;" vertex="1" parent="1">
          <mxGeometry x="1201" y="70" width="40" height="40" as="geometry" />
        </mxCell>
        <mxCell id="2Dn0QCxe09-aWtVjXDXx-46" value="" style="ellipse;whiteSpace=wrap;html=1;aspect=fixed;fillColor=#e1d5e7;strokeColor=#9673a6;" vertex="1" parent="1">
          <mxGeometry x="1201" y="182.5" width="40" height="40" as="geometry" />
        </mxCell>
        <mxCell id="2Dn0QCxe09-aWtVjXDXx-47" value="" style="ellipse;whiteSpace=wrap;html=1;aspect=fixed;fillColor=#fff2cc;strokeColor=#d6b656;" vertex="1" parent="1">
          <mxGeometry x="1201" y="300" width="40" height="40" as="geometry" />
        </mxCell>
        <mxCell id="2Dn0QCxe09-aWtVjXDXx-48" value="" style="ellipse;whiteSpace=wrap;html=1;aspect=fixed;fillColor=#f8cecc;strokeColor=#b85450;" vertex="1" parent="1">
          <mxGeometry x="1201" y="402.5" width="40" height="40" as="geometry" />
        </mxCell>
        <mxCell id="2Dn0QCxe09-aWtVjXDXx-49" value="" style="ellipse;whiteSpace=wrap;html=1;aspect=fixed;fillColor=#f8cecc;strokeColor=#b85450;" vertex="1" parent="1">
          <mxGeometry x="1201" y="520" width="40" height="40" as="geometry" />
        </mxCell>
      </root>
    </mxGraphModel>
  </diagram>
</mxfile>
